<mxfile host="app.diagrams.net" agent="Mozilla/5.0 (X11; Linux x86_64) AppleWebKit/537.36 (KHTML, like Gecko) Chrome/136.0.0.0 Safari/537.36" version="27.2.0">
  <diagram name="Page-1" id="wCF42y16c2bAOfp6Olp_">
    <mxGraphModel dx="2305" dy="1338" grid="1" gridSize="10" guides="1" tooltips="1" connect="1" arrows="1" fold="1" page="1" pageScale="1" pageWidth="850" pageHeight="1100" math="0" shadow="0">
      <root>
        <mxCell id="0" />
        <mxCell id="1" parent="0" />
        <mxCell id="SmWa2bIY7uFoCX6XC1P2-14" style="edgeStyle=orthogonalEdgeStyle;rounded=0;orthogonalLoop=1;jettySize=auto;html=1;" parent="1" source="pQTP1EqQm1EXBX_B9yu7-30" target="pQTP1EqQm1EXBX_B9yu7-51" edge="1">
          <mxGeometry relative="1" as="geometry">
            <Array as="points">
              <mxPoint x="440" y="708" />
            </Array>
          </mxGeometry>
        </mxCell>
        <mxCell id="pQTP1EqQm1EXBX_B9yu7-30" value="Device Storage" style="swimlane;whiteSpace=wrap;html=1;" parent="1" vertex="1">
          <mxGeometry x="410" y="392.5" width="410" height="240" as="geometry" />
        </mxCell>
        <mxCell id="pQTP1EqQm1EXBX_B9yu7-22" value="Jul 07, 2025" style="rounded=0;whiteSpace=wrap;html=1;" parent="pQTP1EqQm1EXBX_B9yu7-30" vertex="1">
          <mxGeometry x="20" y="40" width="120" height="60" as="geometry" />
        </mxCell>
        <mxCell id="pQTP1EqQm1EXBX_B9yu7-23" value="Calendar Entry" style="swimlane;fontStyle=0;childLayout=stackLayout;horizontal=1;startSize=30;horizontalStack=0;resizeParent=1;resizeParentMax=0;resizeLast=0;collapsible=1;marginBottom=0;whiteSpace=wrap;html=1;" parent="pQTP1EqQm1EXBX_B9yu7-30" vertex="1">
          <mxGeometry x="230" y="40" width="160" height="180" as="geometry" />
        </mxCell>
        <mxCell id="pQTP1EqQm1EXBX_B9yu7-24" value="Fair" style="text;strokeColor=none;fillColor=none;align=left;verticalAlign=middle;spacingLeft=4;spacingRight=4;overflow=hidden;points=[[0,0.5],[1,0.5]];portConstraint=eastwest;rotatable=0;whiteSpace=wrap;html=1;" parent="pQTP1EqQm1EXBX_B9yu7-23" vertex="1">
          <mxGeometry y="30" width="160" height="30" as="geometry" />
        </mxCell>
        <mxCell id="pQTP1EqQm1EXBX_B9yu7-25" value="[(3.4, 12:30), (5.0, 14:56)]" style="text;strokeColor=none;fillColor=none;align=left;verticalAlign=middle;spacingLeft=4;spacingRight=4;overflow=hidden;points=[[0,0.5],[1,0.5]];portConstraint=eastwest;rotatable=0;whiteSpace=wrap;html=1;" parent="pQTP1EqQm1EXBX_B9yu7-23" vertex="1">
          <mxGeometry y="60" width="160" height="30" as="geometry" />
        </mxCell>
        <mxCell id="pQTP1EqQm1EXBX_B9yu7-26" value="24:00" style="text;strokeColor=none;fillColor=none;align=left;verticalAlign=middle;spacingLeft=4;spacingRight=4;overflow=hidden;points=[[0,0.5],[1,0.5]];portConstraint=eastwest;rotatable=0;whiteSpace=wrap;html=1;" parent="pQTP1EqQm1EXBX_B9yu7-23" vertex="1">
          <mxGeometry y="90" width="160" height="30" as="geometry" />
        </mxCell>
        <mxCell id="pQTP1EqQm1EXBX_B9yu7-27" value="9:00" style="text;strokeColor=none;fillColor=none;align=left;verticalAlign=middle;spacingLeft=4;spacingRight=4;overflow=hidden;points=[[0,0.5],[1,0.5]];portConstraint=eastwest;rotatable=0;whiteSpace=wrap;html=1;" parent="pQTP1EqQm1EXBX_B9yu7-23" vertex="1">
          <mxGeometry y="120" width="160" height="30" as="geometry" />
        </mxCell>
        <mxCell id="pQTP1EqQm1EXBX_B9yu7-28" value="Watched movie before bed" style="text;strokeColor=none;fillColor=none;align=left;verticalAlign=middle;spacingLeft=4;spacingRight=4;overflow=hidden;points=[[0,0.5],[1,0.5]];portConstraint=eastwest;rotatable=0;whiteSpace=wrap;html=1;" parent="pQTP1EqQm1EXBX_B9yu7-23" vertex="1">
          <mxGeometry y="150" width="160" height="30" as="geometry" />
        </mxCell>
        <mxCell id="pQTP1EqQm1EXBX_B9yu7-29" style="edgeStyle=orthogonalEdgeStyle;rounded=0;orthogonalLoop=1;jettySize=auto;html=1;" parent="pQTP1EqQm1EXBX_B9yu7-30" source="pQTP1EqQm1EXBX_B9yu7-22" target="pQTP1EqQm1EXBX_B9yu7-23" edge="1">
          <mxGeometry relative="1" as="geometry" />
        </mxCell>
        <mxCell id="SmWa2bIY7uFoCX6XC1P2-12" style="edgeStyle=orthogonalEdgeStyle;rounded=0;orthogonalLoop=1;jettySize=auto;html=1;" parent="1" source="pQTP1EqQm1EXBX_B9yu7-31" target="pQTP1EqQm1EXBX_B9yu7-22" edge="1">
          <mxGeometry relative="1" as="geometry" />
        </mxCell>
        <mxCell id="pQTP1EqQm1EXBX_B9yu7-31" value="Quality Questionnaire" style="swimlane;whiteSpace=wrap;html=1;" parent="1" vertex="1">
          <mxGeometry x="15" y="290" width="200" height="345" as="geometry" />
        </mxCell>
        <mxCell id="pQTP1EqQm1EXBX_B9yu7-32" value="Good" style="rounded=0;whiteSpace=wrap;html=1;" parent="pQTP1EqQm1EXBX_B9yu7-31" vertex="1">
          <mxGeometry x="40" y="95" width="120" height="60" as="geometry" />
        </mxCell>
        <mxCell id="pQTP1EqQm1EXBX_B9yu7-35" value="Fair" style="rounded=0;whiteSpace=wrap;html=1;" parent="pQTP1EqQm1EXBX_B9yu7-31" vertex="1">
          <mxGeometry x="40" y="175" width="120" height="60" as="geometry" />
        </mxCell>
        <mxCell id="pQTP1EqQm1EXBX_B9yu7-36" value="Poor" style="rounded=0;whiteSpace=wrap;html=1;" parent="pQTP1EqQm1EXBX_B9yu7-31" vertex="1">
          <mxGeometry x="40" y="255" width="120" height="60" as="geometry" />
        </mxCell>
        <mxCell id="SmWa2bIY7uFoCX6XC1P2-1" value="How was your sleep?" style="text;html=1;align=center;verticalAlign=middle;resizable=0;points=[];autosize=1;strokeColor=none;fillColor=none;" parent="pQTP1EqQm1EXBX_B9yu7-31" vertex="1">
          <mxGeometry x="30" y="45" width="140" height="30" as="geometry" />
        </mxCell>
        <mxCell id="pQTP1EqQm1EXBX_B9yu7-38" value="Types" style="swimlane;whiteSpace=wrap;html=1;" parent="1" vertex="1">
          <mxGeometry x="15" y="10" width="820" height="270" as="geometry" />
        </mxCell>
        <mxCell id="pQTP1EqQm1EXBX_B9yu7-15" value="CalendarEntry Struct" style="swimlane;fontStyle=0;childLayout=stackLayout;horizontal=1;startSize=30;horizontalStack=0;resizeParent=1;resizeParentMax=0;resizeLast=0;collapsible=1;marginBottom=0;whiteSpace=wrap;html=1;" parent="pQTP1EqQm1EXBX_B9yu7-38" vertex="1">
          <mxGeometry x="20" y="40" width="250" height="180" as="geometry" />
        </mxCell>
        <mxCell id="pQTP1EqQm1EXBX_B9yu7-16" value="SleepQuality Sleep quality rating" style="text;strokeColor=none;fillColor=none;align=left;verticalAlign=middle;spacingLeft=4;spacingRight=4;overflow=hidden;points=[[0,0.5],[1,0.5]];portConstraint=eastwest;rotatable=0;whiteSpace=wrap;html=1;" parent="pQTP1EqQm1EXBX_B9yu7-15" vertex="1">
          <mxGeometry y="30" width="250" height="30" as="geometry" />
        </mxCell>
        <mxCell id="pQTP1EqQm1EXBX_B9yu7-17" value="TimeVolume Mic-volume time series" style="text;strokeColor=none;fillColor=none;align=left;verticalAlign=middle;spacingLeft=4;spacingRight=4;overflow=hidden;points=[[0,0.5],[1,0.5]];portConstraint=eastwest;rotatable=0;whiteSpace=wrap;html=1;" parent="pQTP1EqQm1EXBX_B9yu7-15" vertex="1">
          <mxGeometry y="60" width="250" height="30" as="geometry" />
        </mxCell>
        <mxCell id="pQTP1EqQm1EXBX_B9yu7-20" value="String Start time" style="text;strokeColor=none;fillColor=none;align=left;verticalAlign=middle;spacingLeft=4;spacingRight=4;overflow=hidden;points=[[0,0.5],[1,0.5]];portConstraint=eastwest;rotatable=0;whiteSpace=wrap;html=1;" parent="pQTP1EqQm1EXBX_B9yu7-15" vertex="1">
          <mxGeometry y="90" width="250" height="30" as="geometry" />
        </mxCell>
        <mxCell id="pQTP1EqQm1EXBX_B9yu7-19" value="String Stop time" style="text;strokeColor=none;fillColor=none;align=left;verticalAlign=middle;spacingLeft=4;spacingRight=4;overflow=hidden;points=[[0,0.5],[1,0.5]];portConstraint=eastwest;rotatable=0;whiteSpace=wrap;html=1;" parent="pQTP1EqQm1EXBX_B9yu7-15" vertex="1">
          <mxGeometry y="120" width="250" height="30" as="geometry" />
        </mxCell>
        <mxCell id="pQTP1EqQm1EXBX_B9yu7-18" value="String Notes" style="text;strokeColor=none;fillColor=none;align=left;verticalAlign=middle;spacingLeft=4;spacingRight=4;overflow=hidden;points=[[0,0.5],[1,0.5]];portConstraint=eastwest;rotatable=0;whiteSpace=wrap;html=1;" parent="pQTP1EqQm1EXBX_B9yu7-15" vertex="1">
          <mxGeometry y="150" width="250" height="30" as="geometry" />
        </mxCell>
        <mxCell id="pQTP1EqQm1EXBX_B9yu7-39" value="SleepQuality Enum" style="swimlane;fontStyle=0;childLayout=stackLayout;horizontal=1;startSize=30;horizontalStack=0;resizeParent=1;resizeParentMax=0;resizeLast=0;collapsible=1;marginBottom=0;whiteSpace=wrap;html=1;" parent="pQTP1EqQm1EXBX_B9yu7-38" vertex="1">
          <mxGeometry x="290" y="40" width="160" height="120" as="geometry" />
        </mxCell>
        <mxCell id="pQTP1EqQm1EXBX_B9yu7-40" value="GOOD" style="text;strokeColor=none;fillColor=none;align=left;verticalAlign=middle;spacingLeft=4;spacingRight=4;overflow=hidden;points=[[0,0.5],[1,0.5]];portConstraint=eastwest;rotatable=0;whiteSpace=wrap;html=1;" parent="pQTP1EqQm1EXBX_B9yu7-39" vertex="1">
          <mxGeometry y="30" width="160" height="30" as="geometry" />
        </mxCell>
        <mxCell id="pQTP1EqQm1EXBX_B9yu7-41" value="FAIR" style="text;strokeColor=none;fillColor=none;align=left;verticalAlign=middle;spacingLeft=4;spacingRight=4;overflow=hidden;points=[[0,0.5],[1,0.5]];portConstraint=eastwest;rotatable=0;whiteSpace=wrap;html=1;" parent="pQTP1EqQm1EXBX_B9yu7-39" vertex="1">
          <mxGeometry y="60" width="160" height="30" as="geometry" />
        </mxCell>
        <mxCell id="pQTP1EqQm1EXBX_B9yu7-42" value="POOR" style="text;strokeColor=none;fillColor=none;align=left;verticalAlign=middle;spacingLeft=4;spacingRight=4;overflow=hidden;points=[[0,0.5],[1,0.5]];portConstraint=eastwest;rotatable=0;whiteSpace=wrap;html=1;" parent="pQTP1EqQm1EXBX_B9yu7-39" vertex="1">
          <mxGeometry y="90" width="160" height="30" as="geometry" />
        </mxCell>
        <mxCell id="pQTP1EqQm1EXBX_B9yu7-45" value="TimeVolume struct" style="swimlane;fontStyle=0;childLayout=stackLayout;horizontal=1;startSize=30;horizontalStack=0;resizeParent=1;resizeParentMax=0;resizeLast=0;collapsible=1;marginBottom=0;whiteSpace=wrap;html=1;" parent="pQTP1EqQm1EXBX_B9yu7-38" vertex="1">
          <mxGeometry x="470" y="40" width="160" height="90" as="geometry" />
        </mxCell>
        <mxCell id="pQTP1EqQm1EXBX_B9yu7-46" value="String time" style="text;strokeColor=none;fillColor=none;align=left;verticalAlign=middle;spacingLeft=4;spacingRight=4;overflow=hidden;points=[[0,0.5],[1,0.5]];portConstraint=eastwest;rotatable=0;whiteSpace=wrap;html=1;" parent="pQTP1EqQm1EXBX_B9yu7-45" vertex="1">
          <mxGeometry y="30" width="160" height="30" as="geometry" />
        </mxCell>
        <mxCell id="pQTP1EqQm1EXBX_B9yu7-47" value="Float decibels" style="text;strokeColor=none;fillColor=none;align=left;verticalAlign=middle;spacingLeft=4;spacingRight=4;overflow=hidden;points=[[0,0.5],[1,0.5]];portConstraint=eastwest;rotatable=0;whiteSpace=wrap;html=1;" parent="pQTP1EqQm1EXBX_B9yu7-45" vertex="1">
          <mxGeometry y="60" width="160" height="30" as="geometry" />
        </mxCell>
        <mxCell id="SmWa2bIY7uFoCX6XC1P2-19" value="Time" style="swimlane;fontStyle=0;childLayout=stackLayout;horizontal=1;startSize=30;horizontalStack=0;resizeParent=1;resizeParentMax=0;resizeLast=0;collapsible=1;marginBottom=0;whiteSpace=wrap;html=1;" parent="pQTP1EqQm1EXBX_B9yu7-38" vertex="1">
          <mxGeometry x="470" y="150" width="160" height="60" as="geometry" />
        </mxCell>
        <mxCell id="SmWa2bIY7uFoCX6XC1P2-20" value="String time HH:mm" style="text;strokeColor=none;fillColor=none;align=left;verticalAlign=middle;spacingLeft=4;spacingRight=4;overflow=hidden;points=[[0,0.5],[1,0.5]];portConstraint=eastwest;rotatable=0;whiteSpace=wrap;html=1;" parent="SmWa2bIY7uFoCX6XC1P2-19" vertex="1">
          <mxGeometry y="30" width="160" height="30" as="geometry" />
        </mxCell>
        <mxCell id="pQTP1EqQm1EXBX_B9yu7-50" value="Sleep Quality History Graph" style="shape=table;startSize=30;container=1;collapsible=0;childLayout=tableLayout;strokeColor=default;fontSize=16;" parent="1" vertex="1">
          <mxGeometry x="15" y="650" width="300" height="200" as="geometry" />
        </mxCell>
        <mxCell id="pQTP1EqQm1EXBX_B9yu7-51" value="" style="shape=tableRow;horizontal=0;startSize=0;swimlaneHead=0;swimlaneBody=0;strokeColor=inherit;top=0;left=0;bottom=0;right=0;collapsible=0;dropTarget=0;fillColor=none;points=[[0,0.5],[1,0.5]];portConstraint=eastwest;fontSize=16;" parent="pQTP1EqQm1EXBX_B9yu7-50" vertex="1">
          <mxGeometry y="30" width="300" height="56" as="geometry" />
        </mxCell>
        <mxCell id="pQTP1EqQm1EXBX_B9yu7-52" value="" style="shape=partialRectangle;html=1;whiteSpace=wrap;connectable=0;strokeColor=#2D7600;overflow=hidden;fillColor=#60a917;top=0;left=0;bottom=0;right=0;pointerEvents=1;fontSize=16;fontColor=#ffffff;" parent="pQTP1EqQm1EXBX_B9yu7-51" vertex="1">
          <mxGeometry width="60" height="56" as="geometry">
            <mxRectangle width="60" height="56" as="alternateBounds" />
          </mxGeometry>
        </mxCell>
        <mxCell id="pQTP1EqQm1EXBX_B9yu7-53" value="" style="shape=partialRectangle;html=1;whiteSpace=wrap;connectable=0;strokeColor=#2D7600;overflow=hidden;fillColor=#60a917;top=0;left=0;bottom=0;right=0;pointerEvents=1;fontSize=16;fontColor=#ffffff;" parent="pQTP1EqQm1EXBX_B9yu7-51" vertex="1">
          <mxGeometry x="60" width="60" height="56" as="geometry">
            <mxRectangle width="60" height="56" as="alternateBounds" />
          </mxGeometry>
        </mxCell>
        <mxCell id="pQTP1EqQm1EXBX_B9yu7-54" value="" style="shape=partialRectangle;html=1;whiteSpace=wrap;connectable=0;strokeColor=#C73500;overflow=hidden;fillColor=#fa6800;top=0;left=0;bottom=0;right=0;pointerEvents=1;fontSize=16;fontColor=#000000;" parent="pQTP1EqQm1EXBX_B9yu7-51" vertex="1">
          <mxGeometry x="120" width="60" height="56" as="geometry">
            <mxRectangle width="60" height="56" as="alternateBounds" />
          </mxGeometry>
        </mxCell>
        <mxCell id="pQTP1EqQm1EXBX_B9yu7-78" style="shape=partialRectangle;html=1;whiteSpace=wrap;connectable=0;strokeColor=#C73500;overflow=hidden;fillColor=#fa6800;top=0;left=0;bottom=0;right=0;pointerEvents=1;fontSize=16;fontColor=#000000;" parent="pQTP1EqQm1EXBX_B9yu7-51" vertex="1">
          <mxGeometry x="180" width="60" height="56" as="geometry">
            <mxRectangle width="60" height="56" as="alternateBounds" />
          </mxGeometry>
        </mxCell>
        <mxCell id="pQTP1EqQm1EXBX_B9yu7-81" style="shape=partialRectangle;html=1;whiteSpace=wrap;connectable=0;strokeColor=#C73500;overflow=hidden;fillColor=#fa6800;top=0;left=0;bottom=0;right=0;pointerEvents=1;fontSize=16;fontColor=#000000;" parent="pQTP1EqQm1EXBX_B9yu7-51" vertex="1">
          <mxGeometry x="240" width="60" height="56" as="geometry">
            <mxRectangle width="60" height="56" as="alternateBounds" />
          </mxGeometry>
        </mxCell>
        <mxCell id="pQTP1EqQm1EXBX_B9yu7-55" value="" style="shape=tableRow;horizontal=0;startSize=0;swimlaneHead=0;swimlaneBody=0;strokeColor=inherit;top=0;left=0;bottom=0;right=0;collapsible=0;dropTarget=0;fillColor=none;points=[[0,0.5],[1,0.5]];portConstraint=eastwest;fontSize=16;" parent="pQTP1EqQm1EXBX_B9yu7-50" vertex="1">
          <mxGeometry y="86" width="300" height="58" as="geometry" />
        </mxCell>
        <mxCell id="pQTP1EqQm1EXBX_B9yu7-56" value="" style="shape=partialRectangle;html=1;whiteSpace=wrap;connectable=0;strokeColor=#2D7600;overflow=hidden;fillColor=#60a917;top=0;left=0;bottom=0;right=0;pointerEvents=1;fontSize=16;fontColor=#ffffff;" parent="pQTP1EqQm1EXBX_B9yu7-55" vertex="1">
          <mxGeometry width="60" height="58" as="geometry">
            <mxRectangle width="60" height="58" as="alternateBounds" />
          </mxGeometry>
        </mxCell>
        <mxCell id="pQTP1EqQm1EXBX_B9yu7-57" value="" style="shape=partialRectangle;html=1;whiteSpace=wrap;connectable=0;strokeColor=#C73500;overflow=hidden;fillColor=#fa6800;top=0;left=0;bottom=0;right=0;pointerEvents=1;fontSize=16;fontColor=#000000;" parent="pQTP1EqQm1EXBX_B9yu7-55" vertex="1">
          <mxGeometry x="60" width="60" height="58" as="geometry">
            <mxRectangle width="60" height="58" as="alternateBounds" />
          </mxGeometry>
        </mxCell>
        <mxCell id="pQTP1EqQm1EXBX_B9yu7-58" value="" style="shape=partialRectangle;html=1;whiteSpace=wrap;connectable=0;strokeColor=light-dark(#B20000,#FF4141);overflow=hidden;fillColor=light-dark(#E51400,#FF4141);top=0;left=0;bottom=0;right=0;pointerEvents=1;fontSize=16;fontColor=#ffffff;" parent="pQTP1EqQm1EXBX_B9yu7-55" vertex="1">
          <mxGeometry x="120" width="60" height="58" as="geometry">
            <mxRectangle width="60" height="58" as="alternateBounds" />
          </mxGeometry>
        </mxCell>
        <mxCell id="pQTP1EqQm1EXBX_B9yu7-79" style="shape=partialRectangle;html=1;whiteSpace=wrap;connectable=0;strokeColor=light-dark(#B20000,#FF4141);overflow=hidden;fillColor=light-dark(#E51400,#FF4141);top=0;left=0;bottom=0;right=0;pointerEvents=1;fontSize=16;fontColor=#ffffff;" parent="pQTP1EqQm1EXBX_B9yu7-55" vertex="1">
          <mxGeometry x="180" width="60" height="58" as="geometry">
            <mxRectangle width="60" height="58" as="alternateBounds" />
          </mxGeometry>
        </mxCell>
        <mxCell id="pQTP1EqQm1EXBX_B9yu7-82" style="shape=partialRectangle;html=1;whiteSpace=wrap;connectable=0;strokeColor=light-dark(#B20000,#FF4141);overflow=hidden;fillColor=light-dark(#E51400,#FF4141);top=0;left=0;bottom=0;right=0;pointerEvents=1;fontSize=16;fontColor=#ffffff;" parent="pQTP1EqQm1EXBX_B9yu7-55" vertex="1">
          <mxGeometry x="240" width="60" height="58" as="geometry">
            <mxRectangle width="60" height="58" as="alternateBounds" />
          </mxGeometry>
        </mxCell>
        <mxCell id="pQTP1EqQm1EXBX_B9yu7-59" value="" style="shape=tableRow;horizontal=0;startSize=0;swimlaneHead=0;swimlaneBody=0;strokeColor=inherit;top=0;left=0;bottom=0;right=0;collapsible=0;dropTarget=0;fillColor=none;points=[[0,0.5],[1,0.5]];portConstraint=eastwest;fontSize=16;" parent="pQTP1EqQm1EXBX_B9yu7-50" vertex="1">
          <mxGeometry y="144" width="300" height="56" as="geometry" />
        </mxCell>
        <mxCell id="pQTP1EqQm1EXBX_B9yu7-60" value="" style="shape=partialRectangle;html=1;whiteSpace=wrap;connectable=0;strokeColor=inherit;overflow=hidden;fillColor=light-dark(#FFFFFF,#FF4141);top=0;left=0;bottom=0;right=0;pointerEvents=1;fontSize=16;" parent="pQTP1EqQm1EXBX_B9yu7-59" vertex="1">
          <mxGeometry width="60" height="56" as="geometry">
            <mxRectangle width="60" height="56" as="alternateBounds" />
          </mxGeometry>
        </mxCell>
        <mxCell id="pQTP1EqQm1EXBX_B9yu7-61" value="" style="shape=partialRectangle;html=1;whiteSpace=wrap;connectable=0;strokeColor=inherit;overflow=hidden;fillColor=light-dark(#FFFFFF,#FF4141);top=0;left=0;bottom=0;right=0;pointerEvents=1;fontSize=16;" parent="pQTP1EqQm1EXBX_B9yu7-59" vertex="1">
          <mxGeometry x="60" width="60" height="56" as="geometry">
            <mxRectangle width="60" height="56" as="alternateBounds" />
          </mxGeometry>
        </mxCell>
        <mxCell id="pQTP1EqQm1EXBX_B9yu7-62" value="" style="shape=partialRectangle;html=1;whiteSpace=wrap;connectable=0;strokeColor=#2D7600;overflow=hidden;fillColor=#60a917;top=0;left=0;bottom=0;right=0;pointerEvents=1;fontSize=16;fontColor=#ffffff;" parent="pQTP1EqQm1EXBX_B9yu7-59" vertex="1">
          <mxGeometry x="120" width="60" height="56" as="geometry">
            <mxRectangle width="60" height="56" as="alternateBounds" />
          </mxGeometry>
        </mxCell>
        <mxCell id="pQTP1EqQm1EXBX_B9yu7-80" style="shape=partialRectangle;html=1;whiteSpace=wrap;connectable=0;strokeColor=#2D7600;overflow=hidden;fillColor=#60a917;top=0;left=0;bottom=0;right=0;pointerEvents=1;fontSize=16;fontColor=#ffffff;" parent="pQTP1EqQm1EXBX_B9yu7-59" vertex="1">
          <mxGeometry x="180" width="60" height="56" as="geometry">
            <mxRectangle width="60" height="56" as="alternateBounds" />
          </mxGeometry>
        </mxCell>
        <mxCell id="pQTP1EqQm1EXBX_B9yu7-83" style="shape=partialRectangle;html=1;whiteSpace=wrap;connectable=0;strokeColor=#2D7600;overflow=hidden;fillColor=#60a917;top=0;left=0;bottom=0;right=0;pointerEvents=1;fontSize=16;fontColor=#ffffff;" parent="pQTP1EqQm1EXBX_B9yu7-59" vertex="1">
          <mxGeometry x="240" width="60" height="56" as="geometry">
            <mxRectangle width="60" height="56" as="alternateBounds" />
          </mxGeometry>
        </mxCell>
        <mxCell id="yBfsQRXVbgZ2fC3xPqns-1" style="edgeStyle=orthogonalEdgeStyle;rounded=0;orthogonalLoop=1;jettySize=auto;html=1;" edge="1" parent="1" source="SmWa2bIY7uFoCX6XC1P2-17" target="SmWa2bIY7uFoCX6XC1P2-32">
          <mxGeometry relative="1" as="geometry" />
        </mxCell>
        <mxCell id="SmWa2bIY7uFoCX6XC1P2-17" value="Mic Tracker" style="swimlane;whiteSpace=wrap;html=1;startSize=23;" parent="1" vertex="1">
          <mxGeometry x="50" y="920" width="310" height="100" as="geometry" />
        </mxCell>
        <mxCell id="SmWa2bIY7uFoCX6XC1P2-32" value="Alarm" style="swimlane;whiteSpace=wrap;html=1;startSize=23;" parent="1" vertex="1">
          <mxGeometry x="510" y="700" width="200" height="300" as="geometry" />
        </mxCell>
      </root>
    </mxGraphModel>
  </diagram>
</mxfile>
